<?xml version="1.0" encoding="UTF-8" standalone="no"?>
<!DOCTYPE svg PUBLIC "-//W3C//DTD SVG 1.1//EN"
 "http://www.w3.org/Graphics/SVG/1.1/DTD/svg11.dtd">
<!-- Generated by graphviz version 2.40.1 (20161225.0304)
 -->
<!-- Title: G Pages: 1 -->
<svg width="206pt" height="362pt"
 viewBox="0.00 0.00 206.00 362.00" xmlns="http://www.w3.org/2000/svg" xmlns:xlink="http://www.w3.org/1999/xlink">
<g id="graph0" class="graph" transform="scale(1 1) rotate(0) translate(4 358)">
<title>G</title>
<polygon fill="#ffffff" stroke="transparent" points="-4,4 -4,-358 202,-358 202,4 -4,4"/>
<!-- A0 -->
<g id="node1" class="node">
<title>A0</title>
<polygon fill="none" stroke="#000000" points="10,-322 10,-354 86,-354 86,-322 10,-322"/>
<text text-anchor="start" x="23.8345" y="-335" font-family="Helvetica,sans-Serif" font-size="10.00" fill="#000000">A:HotDrink</text>
<polygon fill="none" stroke="#000000" points="10,-302 10,-322 86,-322 86,-302 10,-302"/>
<polygon fill="none" stroke="#000000" points="10,-222 10,-302 86,-302 86,-222 10,-222"/>
<text text-anchor="start" x="25.5045" y="-283" font-family="Helvetica,sans-Serif" font-size="10.00" fill="#000000">Milk:string</text>
<text text-anchor="start" x="23.825" y="-271" font-family="Helvetica,sans-Serif" font-size="10.00" fill="#000000">Sugar:bool</text>
<text text-anchor="start" x="30.0885" y="-259" font-family="Helvetica,sans-Serif" font-size="10.00" fill="#000000">+Drink()</text>
<text text-anchor="start" x="23.9745" y="-247" font-family="Helvetica,sans-Serif" font-size="10.00" fill="#000000">+AddMilk()</text>
<text text-anchor="start" x="19.5205" y="-235" font-family="Helvetica,sans-Serif" font-size="10.00" fill="#000000">+AddSugar()</text>
<polygon fill="none" stroke="#000000" points="10,-202 10,-222 86,-222 86,-202 10,-202"/>
</g>
<!-- A2 -->
<g id="node3" class="node">
<title>A2</title>
<polygon fill="none" stroke="#000000" points="0,-120 0,-152 92,-152 92,-120 0,-120"/>
<text text-anchor="start" x="16.8255" y="-133" font-family="Helvetica,sans-Serif" font-size="10.00" fill="#000000">CupOfCoffee</text>
<polygon fill="none" stroke="#000000" points="0,-100 0,-120 92,-120 92,-100 0,-100"/>
<polygon fill="none" stroke="#000000" points="0,-20 0,-100 92,-100 92,-20 0,-20"/>
<text text-anchor="start" x="20.4455" y="-81" font-family="Helvetica,sans-Serif" font-size="10.00" fill="#000000">Color:string</text>
<text text-anchor="start" x="12.6565" y="-69" font-family="Helvetica,sans-Serif" font-size="10.00" fill="#000000">Volume:double</text>
<text text-anchor="start" x="9.6015" y="-57" font-family="Helvetica,sans-Serif" font-size="10.00" fill="#000000">BeanType:string</text>
<text text-anchor="start" x="31.564" y="-45" font-family="Helvetica,sans-Serif" font-size="10.00" fill="#000000">Refill()</text>
<text text-anchor="start" x="29.8925" y="-33" font-family="Helvetica,sans-Serif" font-size="10.00" fill="#000000">Wash()</text>
<polygon fill="none" stroke="#000000" points="0,0 0,-20 92,-20 92,0 0,0"/>
</g>
<!-- A0&#45;&gt;A2 -->
<g id="edge1" class="edge">
<title>A0&#45;&gt;A2</title>
<path fill="none" stroke="#000000" stroke-dasharray="5,2" d="M47.1472,-191.8711C47.016,-178.6204 46.8814,-165.0207 46.7526,-152.0111"/>
<polygon fill="none" stroke="#000000" points="43.6478,-191.9555 47.2467,-201.9203 50.6475,-191.8861 43.6478,-191.9555"/>
</g>
<!-- A3 -->
<g id="node4" class="node">
<title>A3</title>
<polygon fill="none" stroke="#000000" points="110,-120 110,-152 198,-152 198,-120 110,-120"/>
<text text-anchor="start" x="130.939" y="-133" font-family="Helvetica,sans-Serif" font-size="10.00" fill="#000000">CupOfTea</text>
<polygon fill="none" stroke="#000000" points="110,-100 110,-120 198,-120 198,-100 110,-100"/>
<polygon fill="none" stroke="#000000" points="110,-20 110,-100 198,-100 198,-20 110,-20"/>
<text text-anchor="start" x="128.4455" y="-81" font-family="Helvetica,sans-Serif" font-size="10.00" fill="#000000">Color:string</text>
<text text-anchor="start" x="120.6565" y="-69" font-family="Helvetica,sans-Serif" font-size="10.00" fill="#000000">Volume:double</text>
<text text-anchor="start" x="119.5465" y="-57" font-family="Helvetica,sans-Serif" font-size="10.00" fill="#000000">LeafType:string</text>
<text text-anchor="start" x="139.564" y="-45" font-family="Helvetica,sans-Serif" font-size="10.00" fill="#000000">Refill()</text>
<text text-anchor="start" x="137.8925" y="-33" font-family="Helvetica,sans-Serif" font-size="10.00" fill="#000000">Wash()</text>
<polygon fill="none" stroke="#000000" points="110,0 110,-20 198,-20 198,0 110,0"/>
</g>
<!-- A0&#45;&gt;A3 -->
<g id="edge2" class="edge">
<title>A0&#45;&gt;A3</title>
<path fill="none" stroke="#000000" stroke-dasharray="5,2" d="M90.8513,-196.34C98.5231,-181.7202 106.4896,-166.5388 114.0749,-152.0836"/>
<polygon fill="none" stroke="#000000" points="87.6661,-194.8775 86.1187,-205.3588 93.8646,-198.1302 87.6661,-194.8775"/>
</g>
<!-- A1 -->
<g id="node2" class="node">
<title>A1</title>
<polygon fill="none" stroke="#000000" points="108,-316 108,-348 194,-348 194,-316 108,-316"/>
<text text-anchor="start" x="134.7435" y="-329" font-family="Helvetica,sans-Serif" font-size="10.00" fill="#000000">+I:ICup</text>
<polygon fill="none" stroke="#000000" points="108,-296 108,-316 194,-316 194,-296 108,-296"/>
<polygon fill="none" stroke="#000000" points="108,-228 108,-296 194,-296 194,-228 108,-228"/>
<text text-anchor="start" x="125.4455" y="-277" font-family="Helvetica,sans-Serif" font-size="10.00" fill="#000000">Color:string</text>
<text text-anchor="start" x="117.6565" y="-265" font-family="Helvetica,sans-Serif" font-size="10.00" fill="#000000">Volume:double</text>
<text text-anchor="start" x="136.564" y="-253" font-family="Helvetica,sans-Serif" font-size="10.00" fill="#000000">Refill()</text>
<text text-anchor="start" x="134.8925" y="-241" font-family="Helvetica,sans-Serif" font-size="10.00" fill="#000000">Wash()</text>
<polygon fill="none" stroke="#000000" points="108,-208 108,-228 194,-228 194,-208 108,-208"/>
</g>
<!-- A1&#45;&gt;A2 -->
<g id="edge3" class="edge">
<title>A1&#45;&gt;A2</title>
<path fill="none" stroke="#000000" d="M109.9097,-198.9501C101.9102,-183.5606 93.5394,-167.4567 85.5896,-152.1629"/>
<polygon fill="none" stroke="#000000" points="106.8531,-200.6585 114.5708,-207.9171 113.0641,-197.4299 106.8531,-200.6585"/>
</g>
<!-- A1&#45;&gt;A3 -->
<g id="edge4" class="edge">
<title>A1&#45;&gt;A3</title>
<path fill="none" stroke="#000000" d="M152.1933,-197.654C152.416,-182.6583 152.6481,-167.0279 152.8689,-152.1629"/>
<polygon fill="none" stroke="#000000" points="148.6898,-197.8662 152.0408,-207.9171 155.689,-197.9702 148.6898,-197.8662"/>
</g>
</g>
</svg>
